<svg width="75" height="75" viewBox="0 0 75 75" fill="none" xmlns="http://www.w3.org/2000/svg">
  <!-- Рамка экрана: внешний rect + внутренний вырез (evenodd). Толщина 5px равномерно со всех сторон -->
  <path d="M19 3h37c4.4183 0 8 3.5817 8 8v46c0 4.4183-3.5817 8-8 8H19c-4.4183 0-8-3.5817-8-8V11c0-4.4183 3.5817-8 8-8zm5 5h27c1.656 0 3 1.344 3 3v39c0 1.656-1.344 3-3 3h-27c-1.656 0-3-1.344-3-3v-39c0-1.656 1.344-3 3-3z" fill="white" fill-rule="evenodd"/>
  <!-- Стойка киоска (напольная колонна) -->
  <path d="M31 57h13c2.2091 0 4 1.7909 4 4v7c0 1.1046-0.8954 2-2 2H29c-1.1046 0-2-0.8954-2-2v-7c0-2.2091 1.7909-4 4-4z" fill="white"/>
  <!-- Основание -->
  <path d="M20 70h35c1.1046 0 2 0.8954 2 2s-0.8954 2-2 2H20c-1.1046 0-2-0.8954-2-2s0.8954-2 2-2z" fill="white"/>
  <!-- Строки интерфейса (меню киоска) -->
  <rect x="26" y="14" width="17" height="3.5" rx="1.75" fill="white"/>
  <rect x="26" y="21.5" width="23" height="3.5" rx="1.75" fill="white"/>
  <rect x="26" y="29" width="12" height="3.5" rx="1.75" fill="white"/>
  <!-- Карточка товара -->
  <rect x="26" y="37" width="23" height="12" rx="2" fill="white" opacity=".4"/>
</svg>
